<?xml version="1.0" standalone="no"?>
<!DOCTYPE svg PUBLIC "-//W3C//DTD SVG 20010904//EN"
 "http://www.w3.org/TR/2001/REC-SVG-20010904/DTD/svg10.dtd">
<svg version="1.0" xmlns="http://www.w3.org/2000/svg"
 width="500.000000pt" height="500.000000pt" viewBox="0 0 500.000000 500.000000"
 preserveAspectRatio="xMidYMid meet">
<metadata>
Created by potrace 1.14, written by Peter Selinger 2001-2017
</metadata>
<g transform="translate(0.000000,500.000000) scale(0.100000,-0.100000)"
fill="#000000" stroke="none">
<path d="M2765 4221 c-181 -83 -187 -340 -10 -427 50 -24 63 -26 130 -21 69 5
75 4 75 -13 0 -29 30 -111 51 -141 l18 -26 -55 -22 c-189 -79 -254 -308 -138
-485 21 -31 23 -40 12 -47 -7 -5 -16 -9 -21 -9 -16 0 -95 -82 -107 -110 l-12
-30 -37 29 c-20 15 -51 36 -69 45 l-33 17 30 35 c60 67 78 222 37 303 -15 28
-15 29 9 35 36 9 93 63 117 110 42 81 22 204 -44 262 -56 49 -81 59 -154 59
-61 0 -77 -4 -119 -30 -81 -51 -129 -168 -102 -250 6 -17 2 -21 -18 -23 -52
-4 -126 -45 -170 -94 -41 -45 -53 -71 -81 -175 -2 -7 -12 -13 -22 -13 -32 0
-71 -38 -78 -77 -14 -77 48 -136 124 -117 34 9 40 7 72 -20 l35 -30 -60 -61
c-93 -92 -127 -180 -120 -312 11 -195 185 -362 378 -363 l39 0 -8 -42 c-10
-59 -11 -98 -3 -134 6 -31 5 -32 -33 -38 -116 -19 -189 -105 -189 -222 0 -65
19 -111 65 -156 111 -108 292 -74 357 67 10 22 19 50 19 62 0 21 3 21 73 16
88 -7 164 12 225 57 23 16 43 30 45 30 2 0 19 -20 37 -45 41 -54 114 -93 185
-99 59 -4 105 8 156 40 l39 24 19 -38 c24 -47 88 -106 138 -128 125 -53 289
13 342 136 18 41 26 50 41 45 57 -18 107 -3 130 40 48 89 -44 185 -135 142
-29 -14 -35 -14 -35 -3 0 8 -15 34 -34 59 l-33 44 41 39 c48 45 77 101 84 161
l5 42 31 -24 c90 -69 231 -76 326 -16 39 24 88 82 112 131 29 62 29 167 -1
231 -63 133 -211 200 -351 158 -104 -31 -196 -150 -199 -257 l-1 -23 -27 19
c-68 48 -181 67 -247 42 -27 -10 -28 -9 -41 55 -5 28 -3 31 24 33 82 6 185 81
227 164 l25 48 42 -24 c74 -42 143 -48 228 -20 26 8 59 25 74 38 l27 23 25
-23 c36 -34 103 -36 137 -6 77 70 35 197 -64 194 -23 0 -25 3 -27 44 -5 90
-69 181 -154 220 -33 14 -38 21 -32 38 38 114 3 250 -85 327 -55 49 -117 72
-198 75 -60 3 -80 -1 -130 -25 -32 -15 -74 -43 -93 -62 -40 -40 -79 -120 -87
-177 -7 -50 12 -144 36 -185 20 -33 18 -50 -4 -41 -12 5 -72 -7 -110 -22 -8
-3 -12 7 -13 33 -1 55 -19 115 -48 157 -14 20 -25 40 -25 45 0 4 17 15 38 24
61 27 119 83 149 145 24 48 28 69 28 137 -1 91 -26 154 -87 214 -82 83 -227
110 -332 63 -27 -12 -50 -22 -51 -22 -1 0 -5 12 -8 28 -10 47 -62 108 -118
136 -64 32 -144 35 -204 7z m485 -1273 c1 -18 8 -51 16 -73 22 -57 22 -66 -3
-76 -20 -7 -22 -4 -29 39 -4 25 -15 60 -25 77 -24 39 -24 44 4 55 34 14 37 12
37 -22z m-286 -431 c34 0 77 7 97 16 l37 15 6 -37 c11 -72 84 -152 163 -179
17 -6 58 -9 91 -8 l60 3 5 -48 c7 -58 36 -117 75 -154 l30 -28 -27 -23 -26
-23 -17 34 c-21 40 -70 91 -108 110 -15 8 -53 18 -84 23 -48 8 -67 6 -120 -13
l-62 -22 -17 47 c-33 94 -161 195 -255 202 -37 3 -37 4 -16 73 l17 53 45 -20
c29 -13 67 -20 106 -21z"/>
<path d="M3502 4205 c-14 -8 -19 -14 -11 -17 9 -3 9 -12 -1 -43 -15 -47 -16
-46 22 -62 29 -12 30 -12 46 27 9 22 23 40 30 40 16 0 15 5 -3 40 -17 33 -43
37 -83 15z"/>
<path d="M3716 4111 c-23 -26 -26 -50 -9 -83 7 -16 10 -28 6 -29 -51 -5 -90
-38 -99 -85 -11 -60 35 -113 99 -114 83 0 129 102 73 163 l-24 25 24 6 c51 13
67 81 28 120 -22 22 -77 20 -98 -3z"/>
<path d="M3842 3998 c-18 -18 -15 -36 9 -49 29 -15 59 12 43 39 -14 22 -36 26
-52 10z"/>
<path d="M4313 3751 c1 -6 -13 -22 -31 -38 l-33 -28 24 -29 24 -29 34 25 c19
14 39 24 45 21 7 -2 13 11 16 33 4 31 1 37 -20 45 -30 12 -63 12 -59 0z"/>
<path d="M4265 3428 c3 -7 -11 -23 -30 -35 l-34 -23 17 -30 c20 -36 25 -36 63
-9 16 11 36 18 44 15 11 -4 15 2 16 19 1 14 2 33 3 42 1 10 -9 20 -24 24 -40
11 -60 10 -55 -3z"/>
<path d="M1882 3368 c-16 -16 -15 -23 4 -42 21 -22 56 -3 52 27 -3 25 -37 34
-56 15z"/>
<path d="M1917 3282 c-30 -33 -13 -99 26 -103 48 -5 76 18 77 62 0 52 -69 79
-103 41z"/>
<path d="M4480 3096 c-75 -37 -43 -142 39 -129 32 5 48 18 55 49 15 56 -44
106 -94 80z"/>
<path d="M4460 2926 c-27 -33 18 -72 48 -42 13 13 14 20 6 34 -15 23 -38 26
-54 8z"/>
<path d="M1873 2751 c-43 -35 -35 -91 16 -109 25 -9 34 -7 56 9 16 13 25 30
25 48 0 49 -61 82 -97 52z"/>
<path d="M1712 2584 c-113 -58 -155 -189 -98 -303 l25 -48 -33 -11 c-18 -7
-47 -26 -65 -44 -100 -98 -79 -263 45 -344 39 -26 113 -33 173 -18 41 11 57
12 59 4 3 -7 17 -27 33 -45 102 -115 300 -71 339 76 35 127 -58 250 -190 251
-26 0 -57 -5 -69 -11 -19 -10 -22 -8 -32 16 -6 15 -18 36 -26 46 -9 9 -14 19
-12 20 2 2 25 16 51 30 133 77 138 273 10 362 -35 24 -55 30 -110 33 -48 2
-76 -2 -100 -14z"/>
<path d="M1406 2267 c2 -7 -7 -24 -21 -37 -32 -30 -32 -43 0 -64 27 -18 42
-14 63 16 7 10 20 18 28 18 10 0 14 12 14 40 l0 40 -45 0 c-32 0 -43 -4 -39
-13z"/>
<path d="M1220 2243 c0 -4 -16 -25 -34 -46 -20 -21 -32 -44 -30 -55 3 -11 -46
-78 -141 -192 -80 -96 -165 -198 -188 -227 -28 -35 -47 -50 -59 -47 -14 4
-291 -156 -321 -186 -5 -4 -3 -18 4 -31 11 -21 8 -26 -31 -60 -32 -28 -41 -41
-36 -57 11 -33 31 -45 58 -32 l23 11 -22 -17 c-12 -8 -19 -22 -16 -30 4 -12
11 -11 39 7 40 25 45 14 7 -16 -32 -27 -24 -54 10 -30 12 8 26 15 32 15 5 -1
-2 -8 -17 -16 -33 -17 -34 -30 -9 -63 l18 -23 53 23 c51 22 53 22 66 4 7 -10
15 -23 17 -29 3 -7 18 -4 43 10 l39 21 146 -144 145 -144 89 56 c49 30 90 57
93 59 2 2 -60 66 -137 142 -78 76 -141 140 -141 143 0 3 13 15 29 25 15 11 28
26 27 35 -1 12 35 24 159 53 88 20 171 39 185 42 14 3 72 16 130 29 69 16 109
21 117 15 15 -12 123 9 123 23 0 6 -14 31 -30 57 -17 26 -118 189 -224 362
-173 281 -215 342 -216 313z"/>
<path d="M4049 2152 c-48 -39 -16 -122 48 -122 13 0 35 11 48 24 61 61 -28
152 -96 98z"/>
<path d="M4396 2101 c-3 -5 -24 -7 -45 -4 -37 5 -39 4 -46 -27 -9 -40 1 -50
48 -52 25 -1 37 -6 37 -15 0 -11 8 -8 29 9 35 27 37 45 12 76 -21 24 -27 27
-35 13z"/>
<path d="M4127 1932 c-24 -26 -22 -79 2 -92 49 -25 101 1 101 52 0 51 -69 78
-103 40z"/>
<path d="M4261 1877 c-18 -23 -2 -49 28 -45 20 2 26 8 26 28 0 29 -34 40 -54
17z"/>
<path d="M1790 1737 c0 -9 -17 -18 -42 -23 -40 -9 -43 -11 -40 -39 5 -42 14
-48 56 -37 21 6 38 7 42 1 10 -16 20 -9 37 25 l16 34 -35 27 c-23 18 -34 22
-34 12z"/>
<path d="M2722 1684 c-43 -30 -4 -93 46 -73 29 11 31 63 3 79 -25 13 -22 13
-49 -6z"/>
<path d="M3182 1598 c-11 -39 -9 -42 41 -58 20 -6 35 -16 32 -21 -10 -15 5
-11 41 11 32 20 32 22 19 53 -11 26 -19 32 -46 33 -19 0 -44 4 -56 8 -19 6
-23 2 -31 -26z"/>
<path d="M2010 861 c-14 -4 -37 -6 -53 -5 -15 2 -25 -1 -22 -6 6 -10 -4 -40
-14 -40 -4 0 -13 12 -20 27 -9 20 -14 24 -21 13 -5 -8 0 -22 16 -39 l25 -26
28 32 c15 18 30 30 33 27 3 -2 -10 -20 -28 -38 l-33 -33 -41 38 c-22 21 -33
36 -25 33 8 -4 15 -1 15 5 0 12 -36 15 -44 3 -2 -4 18 -29 45 -56 l50 -49 42
44 c23 23 41 46 40 51 -2 4 2 8 7 8 20 0 9 -20 -40 -68 l-50 -50 -55 55 c-30
31 -55 59 -55 63 0 4 -31 7 -70 7 -38 -1 -70 -5 -70 -10 0 -14 85 -97 99 -97
6 0 11 -4 11 -10 0 -5 -5 -9 -11 -7 -15 3 -97 84 -109 108 -7 12 -18 17 -33
15 -12 -3 -42 -5 -66 -5 -24 -1 -41 -4 -38 -7 9 -9 -75 -84 -93 -83 -13 0 -13
1 -1 6 20 8 81 64 81 75 0 5 -15 8 -34 6 -19 -1 -32 -6 -30 -10 3 -4 0 -8 -5
-8 -6 0 -11 5 -11 10 0 6 -7 10 -15 10 -8 0 -15 -4 -15 -10 0 -5 5 -10 10 -10
6 0 10 -5 10 -11 0 -5 -4 -8 -9 -4 -5 3 -12 -3 -15 -12 -4 -15 -5 -15 -4 2 0
11 0 25 -1 31 -1 12 -31 15 -31 2 0 -4 5 -8 10 -8 6 0 10 -5 10 -11 0 -5 -4
-7 -10 -4 -5 3 -10 2 -10 -4 0 -5 5 -12 10 -14 6 -3 5 -4 -2 -3 -7 2 -14 9
-14 17 -1 8 -2 19 -3 25 -1 12 -31 15 -31 2 0 -4 5 -8 10 -8 6 0 10 -5 10 -11
0 -5 -4 -8 -9 -4 -5 3 -12 -3 -15 -12 -4 -15 -5 -15 -4 2 1 43 -1 46 -20 36
-13 -7 -23 -6 -30 1 -8 8 -12 8 -12 2 0 -7 -29 -10 -75 -9 -55 1 -76 -3 -80
-13 -3 -9 1 -12 15 -7 12 4 20 2 20 -5 0 -6 -4 -9 -9 -6 -5 4 -18 -6 -28 -20
l-20 -27 -26 29 c-14 15 -29 25 -33 21 -3 -3 1 -13 9 -22 17 -16 13 -45 -5
-45 -7 0 -6 5 1 14 9 10 7 17 -6 27 -15 12 -16 12 -11 -2 3 -9 2 -22 -4 -30
-8 -11 -9 -11 -5 2 3 9 -1 26 -9 37 -10 15 -11 23 -3 28 7 4 9 3 5 -4 -3 -6
-2 -13 3 -16 5 -3 12 1 15 10 9 23 9 23 -28 21 -26 -2 -34 -6 -33 -19 1 -10 7
-18 13 -18 7 0 15 -7 18 -16 10 -25 7 -25 -16 -2 -13 13 -22 26 -21 30 1 3 -4
11 -11 18 -11 8 -16 8 -21 -1 -4 -6 -1 -15 6 -20 11 -7 11 -9 1 -9 -7 0 -15 6
-18 14 -3 7 -15 12 -27 11 -12 -1 -37 -3 -56 -4 -19 0 -32 -4 -28 -7 3 -4 -4
-15 -16 -24 -12 -10 -19 -21 -16 -25 4 -3 39 -8 77 -10 39 -2 76 -7 83 -11 8
-4 9 -3 5 4 -4 7 -2 12 3 12 6 0 11 -4 11 -9 0 -9 52 -13 178 -15 39 0 72 -4
72 -9 0 -4 5 -5 10 -2 8 5 7 11 0 20 -7 8 -9 18 -6 23 3 5 -3 17 -14 27 -18
16 -30 8 -13 -9 11 -11 12 -36 1 -36 -6 0 -8 7 -5 15 4 8 2 17 -2 19 -5 3 -8
16 -9 29 0 21 4 19 44 -21 44 -44 62 -71 24 -37 -11 10 -20 13 -20 8 0 -29 66
-51 83 -28 5 7 9 7 15 -1 4 -6 32 -11 62 -12 36 0 49 2 40 8 -13 8 -12 10 2
10 9 0 18 -4 20 -9 4 -12 118 -21 118 -10 0 5 -4 9 -10 9 -9 0 13 24 58 64 35
30 25 11 -13 -27 -39 -39 -34 -52 22 -55 26 -2 31 1 26 14 -5 13 -8 13 -15 2
-6 -9 -7 -5 -3 12 l6 25 -20 -22 c-24 -28 -35 -30 -19 -3 20 31 37 32 53 1 10
-21 21 -29 40 -27 27 1 33 11 13 19 -10 4 -10 6 0 6 7 1 15 -6 18 -14 6 -15
35 -21 47 -9 3 4 -1 18 -10 33 l-15 26 20 -25 c11 -13 18 -28 16 -32 -3 -4 13
-8 36 -8 29 0 39 4 35 13 -3 6 0 5 6 -4 10 -14 17 -15 37 -6 18 8 25 8 31 -2
5 -7 11 -9 14 -4 3 5 -28 42 -69 81 -41 40 -71 72 -66 72 5 0 41 -32 81 -71
l71 -72 65 66 c41 41 61 67 53 70 -9 4 -9 6 -1 6 31 2 18 -24 -44 -83 -37 -36
-64 -69 -59 -73 4 -4 12 0 17 9 20 35 79 46 79 15 0 -7 -4 -7 -12 1 -19 19
-32 14 -17 -5 13 -16 12 -17 -4 -4 -14 11 -21 11 -29 3 -14 -14 -14 -14 34
-16 20 -1 34 2 32 6 -3 4 -1 8 5 8 5 0 11 -6 14 -12 2 -7 8 -9 13 -5 5 5 -5
21 -23 37 l-32 29 41 41 c23 22 45 40 50 40 4 0 -11 -18 -34 -40 l-43 -40 29
-27 29 -27 19 24 c10 12 20 21 21 19 1 -2 11 -14 22 -27 16 -20 16 -22 2 -16
-9 3 -17 10 -17 15 0 5 -4 9 -10 9 -5 0 -7 -8 -4 -17 4 -13 3 -14 -3 -5 -8 11
-12 10 -21 -1 -9 -11 -2 -13 38 -13 28 -1 50 2 50 6 0 4 -9 17 -20 30 -12 14
-18 31 -14 39 17 42 14 43 -23 5 -35 -36 -42 -39 -58 -28 -16 12 -14 16 24 50
22 21 38 41 35 46 -3 4 0 8 5 8 21 0 11 -20 -26 -55 -20 -19 -34 -37 -30 -41
11 -11 77 60 82 88 5 26 4 26 -27 17 -22 -6 -34 -6 -36 1 -2 5 -8 10 -14 10
-6 0 -8 -7 -4 -15 5 -13 3 -13 -17 -1 -13 8 -32 11 -47 7z m-338 -65 c30 -31
35 -46 16 -46 -6 0 -8 3 -5 7 4 3 -11 24 -33 45 -22 22 -40 42 -40 45 0 7 28
-15 62 -51z m45 43 c-2 -10 82 -89 94 -89 5 0 9 -5 9 -11 0 -5 -4 -8 -9 -4 -5
3 -11 0 -14 -7 -2 -7 -3 -5 -2 4 2 9 -7 24 -19 31 -25 17 -56 46 -73 68 -10
13 -10 16 2 16 7 0 13 -4 12 -8z m100 -67 c16 -14 20 -20 8 -14 -28 15 -94 79
-88 86 3 3 16 -7 29 -22 13 -15 36 -38 51 -50z m-347 48 c-26 -22 -40 -26 -40
-9 0 5 4 8 9 5 5 -3 14 1 21 9 7 8 17 15 23 15 5 0 0 -9 -13 -20z m39 -39
c-57 -53 -89 -67 -89 -38 0 8 3 8 11 0 8 -8 26 3 68 43 31 29 60 54 64 54 4 0
-20 -27 -54 -59z m91 54 c0 -2 -24 -28 -52 -56 -29 -28 -52 -55 -51 -60 2 -4
-4 -6 -12 -3 -10 4 4 23 48 65 62 59 67 63 67 54z m-342 -83 c8 -7 13 -15 10
-17 -5 -5 -98 82 -98 92 0 4 17 -9 37 -28 20 -18 43 -40 51 -47z m19 18 c27
-32 11 -26 -27 11 -22 22 -40 42 -40 46 0 7 46 -32 67 -57z m18 22 c-5 -5 -45
22 -45 31 0 4 11 0 24 -10 13 -10 23 -19 21 -21z m5 28 c0 -5 -2 -10 -4 -10
-3 0 -8 5 -11 10 -3 6 -1 10 4 10 6 0 11 -4 11 -10z m327 -17 c26 -23 47 -63
33 -63 -5 0 -10 6 -10 14 0 8 -8 21 -18 28 -18 13 -37 38 -29 38 2 0 13 -8 24
-17z m-773 -17 c-3 -9 -10 -16 -16 -16 -5 0 -7 -4 -4 -8 3 -5 -1 -9 -9 -9 -20
0 -19 2 8 30 25 26 30 27 21 3z m-47 -6 c-14 -11 -28 -20 -32 -20 -10 0 38 39
49 40 5 0 -3 -9 -17 -20z m538 10 c3 -5 1 -10 -4 -10 -6 0 -11 5 -11 10 0 6 2
10 4 10 3 0 8 -4 11 -10z m80 0 c3 -5 1 -10 -4 -10 -6 0 -11 5 -11 10 0 6 2
10 4 10 3 0 8 -4 11 -10z m-529 -24 c2 -14 1 -14 -3 0 -4 14 -7 13 -25 -3 -21
-18 -21 -18 -7 5 15 25 33 24 35 -2z m229 14 c-3 -5 -1 -10 4 -10 6 0 11 -5
11 -11 0 -8 -5 -8 -15 1 -8 7 -15 8 -15 3 0 -5 -12 -15 -27 -22 l-27 -12 29
29 c30 29 52 42 40 22z m-195 -10 c0 -5 -2 -10 -4 -10 -3 0 -8 5 -11 10 -3 6
-1 10 4 10 6 0 11 -4 11 -10z m380 0 c0 -5 -2 -10 -4 -10 -3 0 -8 5 -11 10 -3
6 -1 10 4 10 6 0 11 -4 11 -10z m77 -10 c-1 -11 -5 -20 -9 -20 -3 0 -6 9 -5
20 1 11 5 20 9 20 3 0 6 -9 5 -20z m252 -17 c17 -37 9 -36 -16 3 -12 18 -16
30 -8 28 7 -3 18 -17 24 -31z m-684 17 c3 -5 1 -10 -4 -10 -6 0 -11 5 -11 10
0 6 2 10 4 10 3 0 8 -4 11 -10z m405 2 c0 -4 -9 -8 -20 -9 -11 -1 -20 2 -20 5
0 4 9 8 20 9 11 1 20 -2 20 -5z m47 -14 c-3 -8 -6 -5 -6 6 -1 11 2 17 5 13 3
-3 4 -12 1 -19z m-354 -3 c-3 -9 -8 -14 -10 -11 -3 3 -2 9 2 15 9 16 15 13 8
-4z m262 -5 c3 -5 1 -10 -4 -10 -6 0 -11 5 -11 10 0 6 2 10 4 10 3 0 8 -4 11
-10z m-178 -6 c-3 -3 -12 -4 -19 -1 -8 3 -5 6 6 6 11 1 17 -2 13 -5z m213 -4
c0 -5 -2 -10 -4 -10 -3 0 -8 5 -11 10 -3 6 -1 10 4 10 6 0 11 -4 11 -10z m364
-6 c5 -14 4 -15 -9 -4 -17 14 -19 20 -6 20 5 0 12 -7 15 -16z m144 7 c11 -7
11 -9 -1 -14 -16 -6 -27 0 -27 15 0 10 11 10 28 -1z"/>
<path d="M2173 858 c-4 -7 -8 -26 -9 -43 -1 -16 -5 -38 -9 -47 -4 -10 -3 -18
3 -18 5 0 15 -13 22 -30 7 -16 18 -30 26 -30 10 0 8 10 -8 38 -12 20 -18 34
-13 30 4 -4 18 5 30 22 l21 29 60 -58 60 -58 72 0 71 0 -79 79 c-72 72 -87 88
-77 88 2 0 41 -37 88 -83 l84 -84 72 0 72 0 -79 79 c-72 72 -87 88 -77 88 2 0
41 -37 88 -83 l84 -84 72 0 72 0 -79 79 c-72 72 -87 88 -77 88 2 0 42 -38 89
-84 72 -71 90 -85 117 -84 25 1 29 4 19 15 -8 10 -14 11 -22 3 -5 -5 -14 -10
-20 -10 -5 0 -2 6 8 13 15 11 12 18 -41 67 -55 51 -80 80 -70 80 2 0 39 -34
81 -77 42 -42 79 -73 83 -70 3 4 -24 36 -60 72 -62 60 -74 75 -63 75 2 0 34
-30 70 -67 45 -47 64 -73 60 -85 -4 -14 1 -17 30 -15 19 1 33 4 31 7 -2 3 4
11 12 19 13 12 14 11 9 -6 -5 -17 -1 -19 42 -18 27 0 56 6 66 14 14 12 16 12
11 -1 -5 -12 0 -15 19 -13 39 5 53 17 30 27 -13 5 -10 6 14 4 17 -2 32 0 32 5
0 5 5 9 11 9 5 0 8 -4 5 -9 -8 -13 24 -23 38 -12 8 6 17 6 26 -1 13 -8 12 -9
-2 -5 -9 3 -22 -2 -30 -10 -11 -15 -11 -16 5 -10 10 4 32 7 48 7 20 0 28 4 23
12 -5 8 -3 8 7 2 18 -11 169 -13 169 -1 0 4 5 5 12 1 7 -4 25 -8 40 -9 19 -1
27 3 25 14 -1 9 2 16 6 16 5 0 15 11 22 25 7 14 17 24 21 22 5 -2 12 5 16 15
7 17 8 17 5 0 -1 -10 -6 -17 -10 -15 -5 2 -15 -10 -23 -25 -8 -15 -20 -25 -26
-21 -6 4 -9 1 -6 -7 6 -18 88 -25 88 -9 0 7 -7 10 -17 6 -17 -6 -17 -5 0 8 18
14 24 32 7 21 -5 -3 -10 -1 -10 5 0 17 25 6 26 -11 1 -8 2 -19 3 -25 1 -13
134 -14 147 -1 4 4 2 7 -4 7 -7 0 -12 6 -12 13 1 6 8 3 18 -9 11 -12 26 -19
37 -16 11 2 57 4 102 4 l81 1 18 33 c10 19 22 34 27 34 4 0 5 5 1 11 -8 13
-54 -31 -46 -45 3 -5 -2 -7 -11 -3 -8 3 -21 -1 -27 -9 -14 -16 -40 -19 -40 -3
0 5 5 7 10 4 6 -3 16 -3 22 1 9 6 5 10 -12 15 -22 7 -21 7 7 6 21 -1 41 7 58
23 29 27 32 40 9 40 -8 0 -12 -5 -9 -10 3 -6 2 -10 -4 -10 -5 0 -11 5 -13 10
-2 7 -48 12 -114 14 -61 1 -116 6 -122 10 -7 4 -12 2 -12 -5 0 -9 -3 -9 -14 0
-10 8 -16 9 -21 1 -3 -5 -1 -10 4 -10 6 0 11 -5 11 -11 0 -5 -4 -7 -10 -4 -5
3 -10 2 -10 -4 0 -5 5 -12 10 -14 6 -3 5 -4 -2 -3 -7 2 -14 9 -14 17 -1 8 -2
19 -3 25 -1 12 -31 15 -31 2 0 -4 5 -8 10 -8 6 0 10 -5 10 -11 0 -5 -4 -8 -9
-4 -5 3 -12 -3 -15 -12 -4 -15 -5 -15 -4 2 0 11 0 25 -1 30 -1 6 -43 11 -102
13 -55 1 -105 4 -110 8 -5 3 -9 2 -9 -3 0 -14 -47 -63 -54 -56 -3 3 -6 1 -6
-5 0 -7 -5 -12 -11 -12 -5 0 -8 4 -4 9 3 5 0 11 -7 14 -7 2 -5 3 4 2 10 -2 30
6 44 18 25 19 26 21 8 28 -30 12 -34 10 -34 -11 0 -11 -4 -20 -9 -20 -5 0 -8
8 -7 17 1 12 -8 17 -32 19 -18 1 -35 -3 -39 -9 -4 -6 0 -8 11 -4 9 4 15 3 11
-2 -8 -13 -44 -9 -39 4 3 6 -11 12 -33 13 -20 2 -34 -1 -29 -5 4 -4 15 -8 23
-8 9 0 18 -6 20 -12 3 -7 0 -13 -7 -13 -6 0 -8 5 -5 10 3 6 1 10 -4 10 -6 0
-11 -6 -11 -12 0 -7 -7 -2 -16 10 -10 15 -25 22 -49 22 -28 0 -32 -3 -28 -20
3 -12 0 -20 -6 -20 -7 0 -9 5 -6 10 3 6 3 16 -1 22 -6 9 -10 5 -15 -12 -6 -22
-7 -23 -8 -4 -1 26 -37 39 -45 17 -5 -11 -2 -13 9 -9 9 3 13 2 10 -4 -4 -6
-17 -8 -31 -6 -13 3 -24 0 -24 -5 0 -5 -5 -9 -11 -9 -5 0 -7 5 -4 10 3 6 2 10
-4 10 -5 0 -12 -5 -14 -10 -3 -6 -4 -5 -3 2 2 7 15 13 29 12 26 -1 34 6 21 18
-3 4 -20 2 -37 -3 -21 -6 -33 -5 -35 1 -2 5 -8 10 -14 10 -5 0 -6 -9 -3 -20 4
-12 2 -20 -5 -20 -6 0 -9 4 -5 9 10 17 -27 29 -59 20 -20 -6 -32 -5 -37 2 -3
6 -9 7 -12 2 -3 -4 15 -28 39 -53 45 -45 53 -60 32 -60 -6 0 -9 3 -5 6 3 3
-17 29 -45 57 l-50 52 -311 1 c-287 0 -349 -4 -346 -24 3 -18 -2 -32 -12 -32
-6 0 -7 5 -2 13 9 14 15 47 9 47 -3 0 -8 -6 -13 -12z m165 -68 c40 -38 78 -70
85 -70 6 0 -18 29 -55 65 -61 58 -75 75 -65 75 4 0 113 -107 141 -138 18 -21
18 -21 0 -18 -11 3 -26 7 -35 11 -10 3 -20 2 -24 -4 -3 -6 -11 -11 -18 -11 -6
0 -3 6 7 13 15 11 12 18 -41 67 -53 50 -80 80 -71 80 2 0 36 -31 76 -70z m120
0 c39 -38 68 -70 64 -70 -9 0 -142 127 -142 135 0 10 7 4 78 -65z m40 0 c40
-38 78 -70 85 -70 6 0 -18 29 -55 65 -61 58 -75 75 -65 75 4 0 113 -107 141
-138 18 -21 18 -21 0 -18 -11 3 -26 7 -35 11 -10 3 -20 2 -24 -4 -3 -6 -11
-11 -18 -11 -6 0 -3 6 7 13 15 11 12 18 -41 67 -53 50 -80 80 -71 80 2 0 36
-31 76 -70z m120 0 c39 -38 68 -70 64 -70 -9 0 -142 127 -142 135 0 10 7 4 78
-65z m40 0 c40 -38 78 -70 85 -70 6 0 -18 29 -55 65 -61 58 -75 75 -65 75 4 0
113 -107 141 -138 18 -21 18 -21 0 -18 -11 3 -26 7 -35 11 -10 3 -20 2 -24 -4
-3 -6 -11 -11 -18 -11 -6 0 -3 6 7 13 15 11 12 18 -41 67 -53 50 -80 80 -71
80 2 0 36 -31 76 -70z m120 0 c39 -38 68 -70 64 -70 -9 0 -142 127 -142 135 0
10 7 4 78 -65z m101 18 c28 -29 49 -54 47 -56 -4 -4 -106 96 -106 104 0 10 12
0 59 -48z m-537 -60 c17 -16 26 -28 21 -28 -5 0 -35 25 -67 56 l-58 56 -34
-36 c-19 -20 -37 -36 -41 -36 -7 0 41 56 65 75 11 9 22 3 49 -24 19 -20 48
-48 65 -63z m594 93 c-3 -4 3 -16 14 -26 12 -10 20 -13 20 -7 0 7 5 12 11 12
5 0 8 -4 4 -9 -3 -5 3 -12 12 -14 10 -3 5 -4 -12 -4 -38 1 -91 57 -54 57 5 0
8 -4 5 -9z m34 -1 c0 -5 -4 -10 -10 -10 -5 0 -10 5 -10 10 0 6 5 10 10 10 6 0
10 -4 10 -10z m270 0 c0 -5 -4 -10 -10 -10 -5 0 -10 5 -10 10 0 6 5 10 10 10
6 0 10 -4 10 -10z m163 -5 c-3 -9 -8 -14 -10 -11 -3 3 -2 9 2 15 9 16 15 13 8
-4z m141 -7 c-3 -5 -11 -7 -19 -6 -7 2 -27 -12 -45 -31 -29 -30 -31 -35 -16
-49 14 -14 17 -14 34 1 22 20 32 22 32 5 0 -6 -3 -8 -6 -5 -4 4 -15 -2 -24
-13 -17 -20 -18 -20 -43 5 l-25 26 38 37 c22 21 48 38 59 38 11 0 17 -4 15 -8z
m30 -7 c-10 -10 -21 -16 -24 -14 -3 3 4 11 14 19 28 20 33 17 10 -5z m44 5
c-19 -14 -25 -32 -8 -21 6 3 10 1 10 -4 0 -6 -5 -11 -11 -11 -5 0 -8 -4 -4 -9
6 -10 -33 -36 -42 -28 -2 3 4 8 16 12 14 4 18 12 15 30 -3 16 2 27 13 34 25
15 31 13 11 -3z m36 -5 c-10 -10 -21 -16 -24 -14 -3 3 4 11 14 19 28 20 33 17
10 -5z m-634 -1 c0 -5 -5 -10 -11 -10 -5 0 -7 5 -4 10 3 6 8 10 11 10 2 0 4
-4 4 -10z m120 0 c0 -5 -5 -10 -11 -10 -5 0 -7 5 -4 10 3 6 8 10 11 10 2 0 4
-4 4 -10z m120 0 c0 -5 -5 -10 -11 -10 -5 0 -7 5 -4 10 3 6 8 10 11 10 2 0 4
-4 4 -10z m120 0 c0 -5 -5 -10 -11 -10 -5 0 -7 5 -4 10 3 6 8 10 11 10 2 0 4
-4 4 -10z m320 -1 c0 -5 -4 -7 -10 -4 -5 3 -10 2 -10 -4 0 -5 5 -11 12 -13 8
-3 7 -6 -4 -10 -11 -5 -15 -1 -13 15 3 27 3 27 15 27 6 0 10 -5 10 -11z m120
0 c0 -5 -4 -7 -10 -4 -5 3 -10 -2 -10 -11 0 -10 -3 -15 -6 -11 -9 9 3 37 16
37 5 0 10 -5 10 -11z m92 -44 c19 -26 5 -20 -27 11 -19 18 -35 37 -35 41 0 7
49 -34 62 -52z m57 -22 c1 -7 -17 6 -39 28 -22 22 -40 43 -40 46 0 11 78 -62
79 -74z m-11 69 c15 11 15 11 5 -3 -7 -9 -9 -20 -5 -25 4 -4 -1 -2 -10 5 -10
7 -18 19 -17 25 0 6 3 6 6 -2 4 -10 8 -10 21 0z m-848 -6 c0 -3 -4 -8 -10 -11
-5 -3 -10 -1 -10 4 0 6 5 11 10 11 6 0 10 -2 10 -4z m115 -5 c-3 -5 3 -12 12
-15 10 -2 3 -3 -14 -1 -18 2 -33 -1 -33 -6 0 -5 -5 -9 -11 -9 -5 0 -8 4 -4 9
3 5 -3 12 -12 15 -10 2 -3 3 15 1 17 -2 32 1 32 6 0 5 5 9 11 9 5 0 8 -4 4 -9z
m125 5 c0 -3 -4 -8 -10 -11 -5 -3 -10 -1 -10 4 0 6 5 11 10 11 6 0 10 -2 10
-4z m556 -84 c-5 -5 -76 69 -76 80 0 4 18 -11 40 -34 22 -23 38 -43 36 -46z
m104 78 c0 -5 -4 -10 -10 -10 -5 0 -10 5 -10 10 0 6 5 10 10 10 6 0 10 -4 10
-10z m34 -6 c3 -8 2 -12 -4 -9 -6 3 -10 1 -10 -4 0 -6 -5 -11 -10 -11 -6 0 -5
8 2 20 15 24 14 24 22 4z m-987 0 c-3 -3 -12 -4 -19 -1 -8 3 -5 6 6 6 11 1 17
-2 13 -5z m34 -19 c5 4 9 1 9 -4 0 -6 -5 -11 -11 -11 -5 0 -8 -3 -6 -7 2 -5
-9 -20 -24 -35 -35 -33 -38 -26 -5 13 13 16 23 36 22 46 -2 10 -1 12 1 5 3 -7
9 -10 14 -7z m206 19 c-3 -3 -12 -4 -19 -1 -8 3 -5 6 6 6 11 1 17 -2 13 -5z
m34 -19 c5 4 9 2 9 -4 0 -5 -6 -12 -12 -15 -10 -5 -10 -7 0 -12 6 -3 12 -10
12 -15 0 -6 -4 -8 -9 -4 -5 3 -11 -3 -13 -12 -3 -10 -4 7 -4 37 0 30 1 47 4
37 2 -9 8 -15 13 -12z m209 13 c0 -4 -6 -8 -13 -8 -7 0 -19 -9 -27 -20 -8 -11
-18 -20 -23 -20 -5 0 2 13 15 28 22 27 48 38 48 20z m36 -13 c-3 -9 -10 -14
-15 -11 -5 4 -12 -1 -14 -9 -3 -11 -4 -10 -3 2 1 10 8 17 14 16 7 -2 12 5 12
14 0 9 3 14 6 10 4 -3 4 -13 0 -22z m408 10 c3 -8 1 -15 -4 -15 -6 0 -10 7
-10 15 0 8 2 15 4 15 2 0 6 -7 10 -15z m-857 -14 c2 -19 -49 -81 -66 -81 -5 0
6 15 25 34 22 22 32 40 28 50 -3 9 -2 16 3 16 5 0 9 -9 10 -19z m240 -1 c1
-11 -2 -22 -6 -25 -5 -2 -8 7 -8 20 0 30 12 34 14 5z m378 10 c3 -5 1 -10 -4
-10 -6 0 -11 5 -11 10 0 6 2 10 4 10 3 0 8 -4 11 -10z m80 0 c3 -5 1 -10 -4
-10 -6 0 -11 5 -11 10 0 6 2 10 4 10 3 0 8 -4 11 -10z m-765 -12 c0 -3 -9 -6
-20 -5 -11 1 -20 5 -20 9 0 3 9 6 20 5 11 -1 20 -5 20 -9z m100 8 c0 -3 -4 -8
-10 -11 -5 -3 -10 -1 -10 4 0 6 5 11 10 11 6 0 10 -2 10 -4z m140 -8 c0 -3 -9
-6 -20 -5 -11 1 -20 5 -20 9 0 3 9 6 20 5 11 -1 20 -5 20 -9z m100 8 c0 -3 -4
-8 -10 -11 -5 -3 -10 -1 -10 4 0 6 5 11 10 11 6 0 10 -2 10 -4z m-413 -26 c1
-11 -2 -20 -5 -20 -4 0 -8 9 -9 20 -1 11 2 20 5 20 4 0 8 -9 9 -20z m20 -2
c-3 -8 -6 -5 -6 6 -1 11 2 17 5 13 3 -3 4 -12 1 -19z m218 12 c-3 -5 -2 -10 4
-10 5 0 12 5 14 10 3 6 4 5 3 -2 -2 -7 -15 -13 -29 -12 -15 1 -27 -3 -27 -7 0
-5 -5 -9 -11 -9 -5 0 -7 5 -4 10 3 6 2 10 -4 10 -5 0 -12 -5 -14 -10 -3 -6 -4
-5 -3 2 2 7 15 13 29 12 15 -1 27 3 27 7 0 5 5 9 11 9 5 0 7 -4 4 -10z m485 0
c0 -5 -2 -10 -4 -10 -3 0 -8 5 -11 10 -3 6 -1 10 4 10 6 0 11 -4 11 -10z m77
-10 c-1 -11 -5 -20 -9 -20 -3 0 -6 9 -5 20 1 11 5 20 9 20 3 0 6 -9 5 -20z
m-372 0 c-3 -5 -2 -10 2 -10 5 0 14 -10 22 -22 13 -22 13 -22 -13 1 -27 26
-33 41 -15 41 5 0 7 -4 4 -10z m345 2 c0 -4 -9 -8 -20 -9 -11 -1 -20 2 -20 5
0 4 9 8 20 9 11 1 20 -2 20 -5z m47 -14 c-3 -8 -6 -5 -6 6 -1 11 2 17 5 13 3
-3 4 -12 1 -19z m51 2 c32 -30 27 -38 -5 -9 -16 13 -30 25 -32 27 -2 1 0 2 5
2 6 0 20 -9 32 -20z m-811 4 c-3 -3 -12 -4 -19 -1 -8 3 -5 6 6 6 11 1 17 -2
13 -5z m253 -15 c0 -4 -7 -6 -15 -3 -8 4 -15 10 -15 15 0 4 7 6 15 3 8 -4 15
-10 15 -15z m90 11 c0 -5 -5 -10 -11 -10 -5 0 -7 5 -4 10 3 6 8 10 11 10 2 0
4 -4 4 -10z m260 0 c0 -5 -5 -10 -11 -10 -5 0 -7 5 -4 10 3 6 8 10 11 10 2 0
4 -4 4 -10z m295 0 c3 -5 1 -10 -4 -10 -6 0 -11 5 -11 10 0 6 2 10 4 10 3 0 8
-4 11 -10z m-805 -10 c0 -5 -5 -10 -11 -10 -5 0 -7 5 -4 10 3 6 8 10 11 10 2
0 4 -4 4 -10z m120 0 c0 -5 -5 -10 -11 -10 -5 0 -7 5 -4 10 3 6 8 10 11 10 2
0 4 -4 4 -10z m455 0 c3 -5 1 -10 -4 -10 -6 0 -11 5 -11 10 0 6 2 10 4 10 3 0
8 -4 11 -10z m-765 -4 c0 -3 -4 -8 -10 -11 -5 -3 -10 -1 -10 4 0 6 5 11 10 11
6 0 10 -2 10 -4z m80 0 c0 -3 -4 -8 -10 -11 -5 -3 -10 -1 -10 4 0 6 5 11 10
11 6 0 10 -2 10 -4z m367 -9 c6 2 14 0 17 -5 3 -5 -5 -7 -17 -6 -12 1 -28 3
-34 3 -7 1 -13 6 -13 11 0 7 6 7 18 2 9 -5 22 -7 29 -5z m161 6 c-10 -2 -18
-9 -18 -15 0 -6 -3 -9 -6 -5 -10 10 6 27 24 26 15 -1 15 -2 0 -6z m192 -3 c0
-5 -2 -10 -4 -10 -3 0 -8 5 -11 10 -3 6 -1 10 4 10 6 0 11 -4 11 -10z m-782
-14 c-7 -8 -15 -12 -17 -11 -5 6 10 25 20 25 5 0 4 -6 -3 -14z m839 8 c-3 -3
-12 -4 -19 -1 -8 3 -5 6 6 6 11 1 17 -2 13 -5z"/>
<path d="M1906 846 c3 -9 11 -16 16 -16 13 0 5 23 -10 28 -7 2 -10 -2 -6 -12z"/>
<path d="M1080 832 c0 -5 -15 -7 -32 -4 l-33 4 29 -31 c16 -17 32 -29 34 -26
6 6 13 65 7 65 -3 0 -5 -4 -5 -8z m-9 -29 c13 -16 12 -17 -3 -4 -10 7 -18 15
-18 17 0 8 8 3 21 -13z"/>
<path d="M4103 815 c2 -5 10 -10 17 -10 7 0 15 5 17 10 2 6 -6 11 -17 11 -11
0 -19 -5 -17 -11z"/>
<path d="M4124 791 c-63 -54 -62 -59 10 -58 35 1 62 5 60 9 -3 5 0 8 5 8 6 0
11 -5 11 -11 0 -5 5 -7 12 -3 7 5 1 16 -20 35 -17 15 -28 30 -25 32 3 3 20
-10 38 -29 18 -19 39 -34 45 -34 7 0 -4 17 -25 39 -44 45 -70 48 -111 12z m26
-15 c0 -3 -4 -8 -10 -11 -5 -3 -10 -1 -10 4 0 6 5 11 10 11 6 0 10 -2 10 -4z
m40 -18 c0 -6 -6 -5 -15 2 -8 7 -15 14 -15 16 0 2 7 1 15 -2 8 -4 15 -11 15
-16z m-79 -11 c-10 -9 -11 -8 -5 6 3 10 9 15 12 12 3 -3 0 -11 -7 -18z m54 3
c3 -5 1 -10 -4 -10 -6 0 -11 5 -11 10 0 6 2 10 4 10 3 0 8 -4 11 -10z"/>
<path d="M4246 780 c22 -22 40 -36 42 -30 2 5 -4 17 -12 26 -24 23 -19 27 8 7
13 -10 22 -22 19 -26 -2 -4 11 -7 31 -5 20 1 36 6 36 10 0 5 11 6 25 4 13 -3
27 -1 30 4 6 10 -29 32 -38 24 -3 -3 -15 0 -27 6 -12 7 -20 8 -16 2 9 -15 -23
-24 -42 -12 -14 9 -13 10 6 5 14 -4 22 -2 22 6 0 7 -2 10 -6 7 -3 -3 -21 -2
-40 2 -23 5 -34 4 -34 -3 0 -7 -4 -7 -12 1 -7 7 -16 12 -21 12 -5 0 8 -18 29
-40z m114 -5 c-7 -8 -17 -15 -23 -15 -6 0 -2 7 9 15 25 19 30 19 14 0z"/>
<path d="M705 796 c-11 -6 -23 -15 -27 -21 -5 -6 -8 -5 -8 3 0 6 -5 12 -12 12
-9 0 -9 -3 0 -12 15 -15 44 -20 36 -6 -4 6 -2 8 3 5 6 -4 16 0 23 8 17 20 10
25 -15 11z"/>
<path d="M733 787 c-27 -27 -28 -34 -8 -34 8 0 13 3 10 5 -3 3 4 11 15 19 20
14 27 34 13 32 -5 0 -18 -10 -30 -22z"/>
<path d="M2218 768 c-21 -25 -21 -28 -8 -48 7 -11 12 -12 21 -3 6 6 19 9 28 6
13 -5 13 -2 -3 13 -13 14 -20 15 -23 7 -3 -7 -10 -13 -16 -13 -7 0 -5 6 4 15
19 19 38 12 62 -20 18 -26 18 -26 -32 -13 -7 1 -15 -2 -17 -7 -3 -7 17 -11 51
-12 l55 -1 -49 49 c-27 27 -51 49 -53 49 -2 0 -11 -10 -20 -22z"/>
<path d="M3190 704 c0 -16 6 -16 35 -4 11 5 16 9 10 10 -5 1 -18 3 -27 5 -10
2 -18 -3 -18 -11z"/>
</g>
</svg>
