<?xml version="1.0" standalone="no"?>
<!DOCTYPE svg PUBLIC "-//W3C//DTD SVG 20010904//EN"
 "http://www.w3.org/TR/2001/REC-SVG-20010904/DTD/svg10.dtd">
<svg version="1.0" xmlns="http://www.w3.org/2000/svg"
 width="500.000000pt" height="419.000000pt" viewBox="0 0 500.000000 419.000000"
 preserveAspectRatio="xMidYMid meet">

<g transform="translate(0.000000,419.000000) scale(0.100000,-0.100000)"
fill="#000000" stroke="none">
<path d="M2801 3831 c-91 -23 -171 -126 -171 -219 0 -140 93 -236 230 -237
120 0 206 67 231 182 37 162 -125 315 -290 274z m102 -141 c3 -12 11 -18 19
-15 20 8 46 -24 29 -34 -10 -6 -9 -12 3 -24 12 -11 14 -22 7 -39 -4 -13 -12
-22 -17 -21 -5 2 -9 -4 -9 -13 0 -21 -25 -34 -52 -27 -14 3 -23 1 -23 -6 0
-20 -38 -12 -43 10 -4 14 -11 20 -21 16 -18 -7 -36 20 -28 42 2 7 -1 17 -8 21
-16 10 -4 50 15 50 7 0 15 10 17 23 2 16 10 22 30 22 14 0 30 3 34 8 14 14 42
7 47 -13z"/>
<path d="M2828 3649 c-37 -21 -10 -99 34 -99 23 0 48 33 48 63 0 39 -44 59
-82 36z"/>
<path d="M3516 3808 c-17 -6 -24 -13 -17 -17 8 -6 7 -18 -4 -45 -9 -21 -15
-39 -13 -41 15 -12 50 -25 57 -20 5 3 15 21 21 41 8 23 17 34 26 30 10 -4 10
3 -3 29 -18 37 -23 39 -67 23z"/>
<path d="M3837 3587 c-8 -21 8 -39 29 -35 27 5 25 42 -2 46 -12 2 -24 -3 -27
-11z"/>
<path d="M3645 3565 c-51 -50 -21 -147 49 -161 68 -12 126 48 111 115 -15 68
-111 96 -160 46z"/>
<path d="M2459 3361 c-132 -72 -160 -250 -56 -355 73 -73 176 -87 264 -36 75
43 106 94 111 181 4 59 1 74 -23 118 -16 28 -45 62 -68 78 -54 37 -171 44
-228 14z m211 -125 c0 -2 2 -11 6 -19 3 -9 -21 -36 -67 -77 l-72 -62 -33 59
c-40 68 -40 69 -14 83 17 9 22 6 37 -25 9 -19 20 -35 24 -35 4 0 29 18 54 40
41 35 65 49 65 36z"/>
<path d="M3028 3185 c-218 -60 -315 -304 -192 -486 19 -29 33 -52 32 -53 -60
-24 -114 -73 -154 -141 -10 -18 -13 -17 -50 12 -112 88 -233 114 -360 75 -102
-31 -193 -111 -241 -211 -37 -78 -44 -211 -15 -293 59 -166 193 -260 377 -262
82 -1 96 2 158 31 73 35 153 108 180 165 9 19 22 56 29 83 6 28 13 51 13 52 1
2 25 -6 53 -17 96 -36 208 -20 285 42 18 14 45 49 62 79 47 87 40 187 -22 300
-2 4 4 9 14 12 10 2 25 8 34 12 14 5 18 -3 24 -47 8 -63 45 -141 87 -185 17
-17 57 -43 91 -58 53 -24 69 -27 136 -23 124 8 209 64 261 173 96 201 -50 431
-270 427 -37 -1 -80 -6 -94 -12 -41 -15 -46 -13 -46 23 0 90 -61 203 -139 255
-45 30 -144 63 -186 61 -11 0 -41 -7 -67 -14z m-58 -111 c31 -13 40 -22 40
-40 0 -16 7 -25 23 -29 30 -7 218 -45 223 -45 10 0 1 -31 -28 -97 -36 -82 -33
-81 -138 -58 -74 16 -110 19 -110 7 0 -5 44 -17 98 -27 53 -10 103 -20 110
-22 17 -7 15 -23 -3 -23 -8 0 -15 -9 -15 -20 0 -15 -7 -20 -25 -20 -20 0 -25
5 -25 25 0 19 -7 26 -27 31 -16 3 -36 8 -45 11 -12 3 -16 0 -12 -10 7 -18 -21
-41 -42 -33 -11 4 -15 14 -12 31 4 19 1 25 -13 25 -26 0 -25 45 1 63 18 13 19
21 13 107 -6 90 -7 92 -35 102 -15 5 -28 16 -28 24 0 18 1 17 50 -2z m689
-408 c33 -41 61 -81 61 -90 0 -15 -200 -186 -218 -186 -5 0 -40 37 -76 82
l-67 81 31 32 c28 29 30 35 19 53 -12 19 -10 24 11 47 40 43 57 48 79 26 18
-18 19 -18 47 5 16 13 34 23 40 24 6 0 39 -33 73 -74z m-634 -162 c0 -40 7
-62 32 -103 42 -67 43 -79 11 -104 -22 -16 -30 -18 -42 -8 -10 8 -34 10 -80 5
-63 -6 -66 -6 -66 14 0 15 8 23 28 28 51 11 62 15 62 24 0 14 -61 60 -80 60
-26 0 -43 25 -32 47 25 46 101 95 142 91 23 -3 25 -7 25 -54z m-544 -105 c43
-15 97 -65 115 -106 19 -45 17 -110 -5 -159 -75 -165 -332 -124 -357 58 -19
139 115 251 247 207z"/>
<path d="M3010 2965 c0 -8 9 -15 20 -15 11 0 20 7 20 15 0 8 -9 15 -20 15 -11
0 -20 -7 -20 -15z"/>
<path d="M3077 2955 c-5 -10 0 -15 14 -15 12 0 19 5 17 12 -6 18 -25 20 -31 3z"/>
<path d="M3130 2946 c0 -9 7 -16 16 -16 17 0 14 22 -4 28 -7 2 -12 -3 -12 -12z"/>
<path d="M3190 2935 c0 -14 25 -27 34 -18 11 11 6 21 -14 26 -12 3 -20 0 -20
-8z"/>
<path d="M3010 2916 c0 -9 7 -16 16 -16 9 0 14 5 12 12 -6 18 -28 21 -28 4z"/>
<path d="M3066 2904 c-4 -9 1 -14 14 -14 23 0 27 15 6 23 -8 3 -17 -1 -20 -9z"/>
<path d="M3120 2896 c0 -8 7 -16 15 -20 9 -3 15 0 15 8 0 8 -7 16 -15 20 -9 3
-15 0 -15 -8z"/>
<path d="M3180 2881 c0 -17 18 -21 24 -6 3 9 0 15 -9 15 -8 0 -15 -4 -15 -9z"/>
<path d="M3010 2861 c0 -6 5 -13 10 -16 6 -3 10 1 10 9 0 9 -4 16 -10 16 -5 0
-10 -4 -10 -9z"/>
<path d="M3056 2851 c-3 -5 0 -11 8 -14 15 -6 26 1 26 15 0 11 -27 10 -34 -1z"/>
<path d="M3112 2838 c6 -18 28 -21 28 -4 0 9 -7 16 -16 16 -9 0 -14 -5 -12
-12z"/>
<path d="M3170 2825 c0 -8 2 -15 4 -15 2 0 6 7 10 15 3 8 1 15 -4 15 -6 0 -10
-7 -10 -15z"/>
<path d="M3445 2677 c-22 -19 -25 -25 -14 -34 11 -9 21 -6 42 11 24 19 26 24
14 35 -12 9 -20 7 -42 -12z"/>
<path d="M3523 2589 c-13 -13 -6 -39 11 -39 22 0 37 22 25 37 -14 16 -22 16
-36 2z"/>
<path d="M2938 2520 c-63 -33 -86 -88 -31 -74 14 4 20 11 16 21 -9 23 26 46
45 31 11 -10 17 -8 28 7 30 40 3 47 -58 15z"/>
<path d="M2464 2357 c-5 -12 -7 -25 -6 -29 1 -5 -9 -8 -23 -8 -18 0 -25 5 -25
20 0 11 -5 20 -11 20 -6 0 -9 -9 -6 -20 3 -11 1 -20 -4 -20 -5 0 -9 -11 -9
-25 0 -18 -5 -25 -19 -25 -10 0 -24 -7 -31 -15 -11 -13 -9 -19 8 -35 12 -11
26 -20 32 -20 14 0 13 -15 -7 -71 -21 -57 -14 -68 43 -76 32 -4 44 0 67 21 15
14 36 26 46 26 23 0 37 17 46 53 5 17 3 27 -4 27 -6 0 -11 -4 -11 -10 0 -5 -4
-10 -10 -10 -5 0 -10 7 -10 16 0 13 -5 11 -19 -8 -11 -13 -19 -33 -18 -43 1
-11 -3 -20 -10 -20 -6 0 -15 -3 -19 -7 -4 -5 -14 -8 -22 -8 -11 0 -13 8 -10
33 6 39 1 57 -18 57 -18 0 -18 30 1 66 8 16 15 36 15 44 0 8 10 20 22 25 11 6
27 20 35 31 12 19 12 22 -1 27 -10 4 -18 -2 -22 -16z"/>
<path d="M2515 2341 c-3 -5 -1 -12 5 -16 5 -3 10 1 10 9 0 18 -6 21 -15 7z"/>
<path d="M2257 2242 c-8 -40 8 -93 38 -128 l25 -29 0 31 c0 16 -5 35 -10 40
-6 6 -18 34 -29 63 -18 51 -18 51 -24 23z"/>
<path d="M1887 2973 c-13 -12 -7 -44 8 -49 24 -10 47 14 34 37 -10 19 -30 25
-42 12z"/>
<path d="M1926 2879 c-14 -11 -26 -29 -26 -40 0 -25 35 -59 60 -59 24 0 60 34
60 55 0 17 -43 65 -58 65 -5 0 -21 -9 -36 -21z"/>
<path d="M4248 2631 c-28 -25 -33 -36 -33 -76 0 -40 5 -51 33 -76 69 -62 172
-17 172 75 0 93 -103 139 -172 77z"/>
<path d="M4462 2508 c2 -15 10 -23 23 -23 30 0 27 39 -3 43 -20 3 -23 0 -20
-20z"/>
<path d="M4115 2401 c-107 -27 -214 -141 -215 -231 -1 -48 -13 -54 -55 -26
-151 103 -368 21 -416 -157 -31 -116 36 -262 145 -319 49 -25 138 -34 192 -19
93 25 176 115 196 212 12 57 20 70 33 49 4 -6 29 -22 56 -36 142 -72 302 -18
377 126 31 60 34 70 30 136 -4 56 -12 84 -35 125 -62 110 -190 168 -308 140z
m63 -141 c18 -11 38 -18 43 -15 5 4 26 -4 46 -16 20 -13 47 -22 60 -21 13 1
23 -1 23 -3 0 -20 -63 -165 -72 -165 -6 0 -8 11 -6 24 3 14 -3 34 -13 47 l-19
24 0 -26 c0 -35 -36 -79 -65 -79 -23 0 -85 60 -85 82 0 6 -9 3 -20 -7 -10 -9
-26 -15 -35 -12 -17 7 -21 36 -5 38 6 1 16 2 23 3 8 1 11 18 9 59 -2 35 1 63
8 72 18 21 69 18 108 -5z m-508 -252 c19 -25 21 -35 11 -50 -16 -26 6 -24 36
3 18 18 25 20 38 9 11 -9 18 -10 29 -1 11 9 19 5 40 -19 14 -18 26 -35 26 -40
0 -5 -18 -22 -39 -39 l-40 -32 -27 36 c-20 27 -24 39 -16 47 7 7 12 17 12 23
-1 5 -13 -4 -28 -20 -15 -17 -39 -37 -54 -44 -16 -8 -28 -18 -28 -23 0 -4 9
-3 20 4 18 11 23 9 45 -17 31 -38 30 -45 -5 -72 -43 -34 -53 -35 -79 -1 -20
25 -22 34 -13 49 6 10 9 25 6 32 -3 8 6 23 20 35 31 24 36 49 7 30 -16 -10
-23 -7 -45 18 -14 16 -25 34 -25 39 0 10 67 65 79 65 3 0 17 -14 30 -32z"/>
<path d="M4084 2235 c-3 -8 -1 -30 6 -49 10 -32 12 -33 40 -23 25 9 27 14 18
31 -14 28 -39 56 -50 56 -5 0 -11 -7 -14 -15z"/>
<path d="M4131 2136 l-23 -13 32 -37 c39 -44 57 -36 43 20 -10 43 -19 48 -52
30z"/>
<path d="M1192 1801 c-18 -22 -32 -42 -32 -45 0 -3 72 -124 161 -268 245 -399
250 -408 255 -408 14 0 100 24 105 29 8 7 -434 724 -448 728 -5 2 -24 -14 -41
-36z"/>
<path d="M1599 1812 c-76 -39 -114 -102 -114 -187 0 -86 38 -149 114 -187 63
-32 112 -35 173 -12 85 33 137 108 138 197 0 78 -55 167 -124 198 -60 27 -123
24 -187 -9z m166 -109 c5 -13 16 -23 24 -23 12 0 12 -3 -1 -17 -9 -10 -13 -24
-11 -30 3 -7 0 -13 -6 -13 -6 0 -11 -6 -11 -14 0 -7 -9 -25 -21 -40 -16 -21
-29 -26 -63 -26 -48 0 -74 20 -78 61 -2 18 2 25 19 27 15 2 25 12 29 30 13 55
32 73 72 70 27 -2 40 -9 47 -25z"/>
<path d="M4400 1701 c0 -10 -11 -12 -45 -9 l-45 6 0 -34 c0 -32 3 -34 40 -40
22 -4 40 -11 40 -16 0 -5 13 1 30 13 30 23 30 30 -4 74 -10 13 -15 15 -16 6z"/>
<path d="M2375 1599 c-163 -39 -221 -256 -99 -371 90 -84 245 -76 321 16 99
121 56 290 -90 351 -40 17 -72 18 -132 4z m80 -83 c33 -33 40 -68 21 -107 -18
-37 -19 -42 -7 -35 9 6 71 -88 71 -109 0 -7 -7 -15 -15 -19 -11 -4 -27 11 -53
46 -20 29 -36 57 -35 63 2 7 -10 9 -31 7 -45 -5 -75 12 -92 54 -12 29 -12 39
0 68 17 40 39 55 84 56 22 0 41 -8 57 -24z"/>
<path d="M2352 1504 c-31 -21 -31 -87 0 -108 49 -35 111 -4 111 54 0 58 -62
89 -111 54z"/>
<path d="M4143 1540 c-62 -25 -24 -123 41 -106 49 12 53 81 6 106 -21 11 -18
11 -47 0z"/>
<path d="M4273 1483 c-18 -7 -16 -42 3 -50 8 -3 23 1 31 10 13 13 14 19 3 31
-13 17 -17 18 -37 9z"/>
<path d="M1786 1325 c-3 -8 -16 -15 -28 -15 -37 0 -49 -13 -42 -47 6 -30 7
-30 47 -21 30 7 43 6 45 -2 4 -11 42 36 42 52 0 4 -13 16 -29 27 -24 18 -30
19 -35 6z"/>
<path d="M2722 1278 c-25 -25 -6 -68 30 -68 26 0 45 44 28 65 -15 18 -41 20
-58 3z"/>
<path d="M610 1189 c-80 -50 -151 -94 -159 -98 -11 -7 -11 -12 3 -33 16 -25
16 -26 -28 -59 -51 -38 -53 -44 -27 -78 17 -23 19 -23 42 -7 36 25 48 19 14
-8 -37 -30 -28 -43 14 -22 18 10 32 12 36 6 3 -5 -8 -16 -25 -25 -29 -15 -40
-35 -20 -35 6 0 22 7 35 16 16 10 25 12 25 5 0 -6 -11 -17 -25 -23 -14 -6 -25
-14 -25 -17 0 -5 18 -36 36 -59 1 -2 25 8 53 22 l50 26 23 -30 22 -30 35 21
34 20 141 -140 c78 -78 145 -141 150 -141 12 0 176 101 176 109 0 3 -64 69
-141 147 l-142 142 32 16 c35 19 35 19 20 49 -18 34 -180 291 -193 304 -8 9
-45 -9 -156 -78z"/>
</g>
</svg>
